<?xml version="1.0" standalone="no"?>
<!DOCTYPE svg PUBLIC "-//W3C//DTD SVG 20010904//EN"
 "http://www.w3.org/TR/2001/REC-SVG-20010904/DTD/svg10.dtd">
<svg version="1.0" xmlns="http://www.w3.org/2000/svg"
 width="120.000000pt" height="120.000000pt" viewBox="0 0 120.000000 120.000000"
 preserveAspectRatio="xMidYMid meet">
<metadata>
Created by potrace 1.14, written by Peter Selinger 2001-2017
</metadata>
<g transform="translate(0.000000,120.000000) scale(0.100000,-0.100000)"
fill="#000000" stroke="none">
<path d="M514 1110 c-40 -17 -104 -83 -104 -107 0 -6 -25 -23 -55 -37 -125
-57 -210 -201 -200 -338 2 -28 -1 -60 -7 -72 -14 -26 -20 -64 -13 -92 6 -27
45 -70 70 -78 14 -4 26 -24 38 -64 72 -233 364 -326 571 -183 44 31 86 75 86
91 0 6 5 10 10 10 6 0 10 9 10 20 0 11 4 20 9 20 6 0 13 20 17 46 6 41 10 47
49 65 74 35 96 114 49 176 -20 26 -26 48 -29 96 -4 74 -8 93 -33 150 -28 63
-87 124 -146 151 -38 17 -56 33 -68 59 -29 60 -108 106 -183 105 -16 0 -48 -8
-71 -18z"/>
</g>
</svg>
